<svg width="51" height="51" viewBox="0 0 51 51" fill="none" xmlns="http://www.w3.org/2000/svg">
<path d="M43.0312 23.4062C43.5865 23.4062 44.1191 23.6269 44.5117 24.0195C44.9044 24.4122 45.125 24.9447 45.125 25.5C45.125 26.0553 44.9044 26.5878 44.5117 26.9805C44.1191 27.3731 43.5865 27.5938 43.0312 27.5938H11.1562C10.601 27.5938 10.0684 27.3731 9.67578 26.9805C9.28313 26.5878 9.0625 26.0553 9.0625 25.5C9.0625 24.9447 9.28313 24.4122 9.67578 24.0195C10.0684 23.6269 10.601 23.4062 11.1562 23.4062H43.0312Z" fill="#1D1929" stroke="#1D1929"/>
<path d="M24.1134 9.07117C24.5932 9.11881 25.0439 9.33078 25.3878 9.67468L25.5275 9.828C25.833 10.2009 26.0021 10.6698 26.0021 11.1561C26.0021 11.6424 25.833 12.1113 25.5275 12.4843L25.3878 12.6385L12.5236 25.4999L25.3878 38.3622L25.5275 38.5155C25.833 38.8884 26.0021 39.3573 26.0021 39.8436C26.0021 40.3299 25.833 40.7988 25.5275 41.1718L25.3878 41.326C24.9948 41.7188 24.462 41.9393 23.9064 41.9393C23.42 41.9393 22.9512 41.7703 22.5782 41.4647L22.424 41.326L8.0802 26.9823V26.9813C7.93426 26.8356 7.81099 26.6693 7.71399 26.4882L7.6261 26.3026C7.52055 26.0482 7.46594 25.7753 7.46594 25.4999L7.47571 25.2938C7.49595 25.0891 7.54697 24.8878 7.6261 24.6971L7.71399 24.5116C7.81119 24.3301 7.93486 24.1634 8.08118 24.0175L22.424 9.67468L22.5782 9.53503C22.9512 9.22952 23.4201 9.06042 23.9064 9.06042L24.1134 9.07117Z" fill="#1D1929" stroke="#1D1929"/>
</svg>
